<?xml version="1.0" encoding="utf-8"?>
<!-- Generator: Adobe Illustrator 23.0.1, SVG Export Plug-In . SVG Version: 6.00 Build 0)  -->
<svg version="1.1" id="Calque_1" xmlns="http://www.w3.org/2000/svg" xmlns:xlink="http://www.w3.org/1999/xlink" x="0px" y="0px"
	 viewBox="0 0 41.26 41.26" style="enable-background:new 0 0 41.26 41.26;" xml:space="preserve">
<style type="text/css">
	.st0{fill:none;}
</style>
<g>
	<g>
		<path class="st0" d="M27.28,2.58c0.73,3.33-2.77,7.86-7.52,7.76c-0.21-0.76-0.11-1.51,0.12-2.24c0.64-1.97,1.96-3.35,3.73-4.36
			c0.97-0.55,2.01-0.94,3.11-1.11C26.91,2.6,27.1,2.59,27.28,2.58z"/>
	</g>
	<g>
		<path class="st0" d="M29.39,21.1c0-3.47,1.88-6.41,4.49-7.45c-1.01-1.06-2.22-1.83-3.53-2.47c-2.15-1.04-4.29-1.1-6.44,0.02
			c-0.51,0.27-1.03,0.51-1.56,0.75c-0.9,0.41-1.84,0.51-2.78,0.21c-0.95-0.31-1.89-0.67-2.82-1.04c-1.2-0.47-2.43-0.8-3.72-0.6
			c-2.85,0.44-5.01,2.01-6.51,4.48c-1.93,3.16-2.25,6.63-1.5,10.22c0.57,2.72,1.76,5.17,3.33,7.42c1.13,1.61,2.42,3.07,4.06,4.16
			c1.17,0.78,2.42,1.17,3.8,0.7c0.56-0.19,1.09-0.44,1.63-0.68c1.35-0.6,2.77-0.75,4.2-0.46c0.83,0.17,1.64,0.49,2.42,0.83
			c1.89,0.84,3.57,0.6,5.12-0.81c1.12-1.02,1.99-2.25,2.82-3.52c0.85-1.3,1.59-2.65,2.2-4.09C31.63,28.05,29.39,24.89,29.39,21.1z"
			/>
	</g>
</g>
</svg>
